<svg xmlns="http://www.w3.org/2000/svg" viewBox="0 0 220 80" role="img" aria-label="Lar">
  <defs>
    <linearGradient id="heartStroke" x1="0%" x2="0%" y1="0%" y2="100%">
      <stop offset="0%" stop-color="#f15b6c" />
      <stop offset="100%" stop-color="#d6244a" />
    </linearGradient>
  </defs>
  <g transform="translate(8 6)">
    <path
      d="M57.2 11.3c-5.5-5.5-14.5-5.5-20 0l-1.9 1.9-1.9-1.9c-5.5-5.5-14.5-5.5-20 0-5.5 5.5-5.5 14.5 0 20l21.9 22.5c1 1 2.7 1 3.7 0L57.2 31.3c5.5-5.5 5.5-14.5 0-20Z"
      fill="url(#heartStroke)"
    />
    <path
      d="M85.4 54.5c-9.7 0-15.9-5.8-15.9-16V10.8h11.7v26.9c0 4.4 2.1 6.9 5.9 6.9 3.8 0 5.9-2.5 5.9-6.9V10.8h11.7v27.7c0 10.2-6.4 16-19.3 16Zm35.5-.3c-7.6 0-14-2.9-18.5-8.5l8.1-6.9c2.6 3.4 6 5.2 9.5 5.2 3.1 0 5.5-1.6 5.5-4.2 0-2.4-1.8-3.8-6.2-4.7l-4-.8c-9-1.8-13.8-6.4-13.8-13.9 0-8.1 7-13.6 16.9-13.6 7.3 0 13.4 2.8 17.3 7.8l-7.7 6.3c-2-2.7-4.8-4.1-8.1-4.1-2.8 0-4.7 1.4-4.7 3.7 0 2.3 1.7 3.5 5.8 4.3l4 .8c9 1.8 13.8 6.3 13.8 13.8 0 8.6-6.9 14.7-16.9 14.7Zm54.6-1.2-9.8-17.4-5.4 6.3v11.1h-11.7V3h11.7v30.9l13.7-15.5h13.5l-14 15.3 15.1 23.5h-18.1Z"
      fill="#303336"
    />
  </g>
</svg>
