<svg width="320" height="280" viewBox="0 0 320 280" fill="none" xmlns="http://www.w3.org/2000/svg" role="img" aria-label="Lar">
  <path d="M137.5 70C137.5 45.1472 154.97 26 178.5 26C200.04 26 215.5 42.2234 215.5 64.5C215.5 106.5 161.5 137.5 161.5 178.5C161.5 137.5 107.5 106.5 107.5 64.5C107.5 42.2234 122.96 26 144.5 26C168.03 26 185.5 45.1472 185.5 70" stroke="#E0445A" stroke-width="18" stroke-linecap="round" stroke-linejoin="round"/>
  <path d="M40 224C40 175.771 73.7715 142 122 142H158V178.5H128C112.536 178.5 100 191.036 100 206.5V224H40Z" fill="#2E2F35"/>
  <path d="M168 142V224H228V196.5C228 192.357 231.357 189 235.5 189C239.643 189 243 192.357 243 196.5V224H283V188C283 159.386 259.614 136 231 136C216.414 136 204.507 141.652 196 151.5V142H168Z" fill="#2E2F35"/>
  <path d="M161.5 224C161.5 202.297 179.297 184.5 201 184.5H206.5V224H161.5Z" fill="#2E2F35"/>
  <path d="M73 202C73 180.297 90.7968 162.5 112.5 162.5H126V224H73V202Z" fill="#2E2F35"/>
  <path d="M112 110C136.405 110 156.5 89.9052 156.5 65.5C156.5 41.0948 136.405 21 112 21C87.5948 21 67.5 41.0948 67.5 65.5C67.5 89.9052 87.5948 110 112 110Z" fill="#E0445A" opacity="0.12"/>
  <text x="48" y="257" fill="#2E2F35" font-family="'Inter', 'Segoe UI', sans-serif" font-weight="700" font-size="76">Lar</text>
</svg>
