<svg width="200" height="64" viewBox="0 0 200 64" fill="none" xmlns="http://www.w3.org/2000/svg" role="img" aria-label="Lar">
  <defs>
    <linearGradient id="heartGradient" x1="10" y1="6" x2="38" y2="36" gradientUnits="userSpaceOnUse">
      <stop stop-color="#F76363" />
      <stop offset="1" stop-color="#D6233A" />
    </linearGradient>
  </defs>
  <path
    d="M34.5 10.5c-3.2-3.3-8.4-3.3-11.6 0l-.9.9-.9-.9c-3.2-3.3-8.4-3.3-11.6 0-3.2 3.3-3.2 8.8 0 12.1l12.5 12.7c.6.6 1.6.6 2.2 0l12.5-12.7c3.2-3.3 3.2-8.8 0-12.1Z"
    fill="url(#heartGradient)"
  />
  <path
    d="M62.2 46c-5.7 0-9.5-3.4-9.5-9.6V14.2h7v21.7c0 2.3 1.2 3.6 3.2 3.6 2.2 0 3.3-1.3 3.3-3.6V14.2h7V36c0 6.2-3.9 10-11 10Zm23.5-.2c-4.4 0-8.1-1.7-10.7-4.9l4.7-4.1c1.6 2 3.4 2.9 5.6 2.9 2 0 3.2-.9 3.2-2.4 0-1.4-1.2-2-3.6-2.5l-2.4-.5c-5.2-1.1-8.1-3.9-8.1-8.4 0-5 4.1-8.4 9.8-8.4 4.2 0 7.8 1.7 10.1 4.5l-4.5 3.9c-1.3-1.7-3.1-2.6-5.2-2.6-1.8 0-2.9.8-2.9 2.1 0 1.3 1 2 3.4 2.4l2.4.5c5.4 1.1 8.2 3.9 8.2 8.5 0 5.3-4.2 8.9-10 8.9Zm32.3-.7-5.8-10.5-3.2 3.9v6.6h-7V9h7v18.7l8.1-9.4h8l-8.3 9.3L130 45.1h-11Z"
    fill="#1F2E3D"
  />
  <path d="M24.7 52.5c-8.2 0-15.1-.5-21-1.6C1.7 50.4 0 49 0 47.3c0-1.7 1.6-3 3.8-2.6 5.5 1 12 1.5 20.9 1.5 9 0 15.8-.5 21.3-1.5 2.2-.4 4 1 4 2.7 0 1.7-1.7 3.1-3.8 3.5-6.1 1.1-13.1 1.6-21.5 1.6Z" fill="#2A9D8F" />
</svg>
